<?xml version="1.0" encoding="utf-8"?>
<!-- Generator: Adobe Illustrator 19.0.0, SVG Export Plug-In . SVG Version: 6.00 Build 0)  -->
<svg version="1.1" id="Camada_1" xmlns="http://www.w3.org/2000/svg" xmlns:xlink="http://www.w3.org/1999/xlink" x="0px" y="0px"
	 viewBox="0 0 544 260" style="enable-background:new 0 0 544 260;" xml:space="preserve">
<style type="text/css">
	.st0{fill:rgba(0,0,0,0);}
	.st1{fill:#E1AC5A;}
	.st2{fill:#073F35;}
</style>
<g id="XMLID_1_">
	<path id="XMLID_103_" class="st0" d="M272,265c-89.3,0-178.7,0-268,0.1c-3.4,0-4.1-0.7-4.1-4.1C0,177,0,93-0.1,9
		c0-3.4,0.7-4.1,4.1-4.1C182.7,5,361.3,5,540,4.9c3.4,0,4.1,0.7,4.1,4.1c-0.1,84-0.1,168,0,252c0,3.4-0.7,4.1-4.1,4.1
		C450.7,265,361.3,265,272,265z M326.8,187.3c4.7-1.8,8.9-4.4,13.1-7.2c2-1.3,2.3-2.3,0.8-4.3c-2.9-3.8-5.8-7.7-8.4-11.8
		c-1.5-2.4-2.7-2.9-5.5-1.3c-5.8,3.5-12.3,5.1-19.1,5c-5.8,0-11.3-1.4-15.2-6.2c-0.8-1-1.9-2.2-1.4-3.5c0.7-1.6,2.3-0.8,3.5-0.8
		c14.2-0.1,28.3,0,42.5,0c13.6,0,13.9-0.3,15.7-14c2.6-19.8-6.4-32.8-25.8-37.4c-6.7-1.6-13.5-1.6-20.4-0.8
		c-21.7,2.5-39,16.4-45,36.3c-7.5,25.2,3.2,44.4,27.7,49.7c-23,6.5-45.2,15.4-67.1,24.8c-28.6,12.3-58,20.1-89.6,17.1
		c-13.4-1.3-25.8-5.3-34.2-16.2c-8-10.3-15.5-21.6-6.1-35.3c0.4-0.5,0.6-1.2,0.8-1.8c0.7-2.5,2.2-3.8,4.9-4
		c6.6-0.5,10.4-4.7,12.6-10.5c1.6-4.1,3.8-7.8,6.1-11.4c2.5-3.9,4.6-8.1,5.7-12.7c1.1-4.5,2.1-9.6-1.1-13.4
		c-1.8-2.2-2.6-4.3-2.5-7.7c-4.1,4.2-10.2,1.8-13.6,6.1c-0.5,0.6-1.2,0.3-1.7-0.3c-0.8-0.8-0.4-1.4,0.2-2.1
		c5.5-7,8.1-15.5,13.1-22.8c2.2-3.2,3.1-7,3.9-10.7c0.8-3.8,1.2-8.2-1.8-10.9c-2.4-2.2-2.8-4.3-2.9-7.7c-1.8,4.4-5.4,2-8,3
		c-6.6,2.5-9.5,8.1-11.9,14c-3,7.2-5.4,14.6-8.2,21.9c-0.4,1.1-0.8,2.5-2.8,1.8c-1.6-0.5-2.2-1.1-2-2.7c1.2-9.6-1-20.1,7.6-27.7
		c0.5-0.5,1.7-1.3,0.3-1.7c-3.5-1.1-1.9-3.9-2-5.8c-0.5-8.6,1.2-17.3,0.1-25.9c-0.6-5.2-2.2-10-6.9-12.6c-2.2-1.2-3.7-2.7-5-4.8
		c-1.7,1.4-1.1,3.5-3.3,4.5c-5.1,2.3-7.3,6.8-7.9,12.4c-1.3,11.1,2,21.8,2.3,32.8c0.1,2.2,0.6,5.8,1.7,6.5c8.2,4.9,9.3,6.5,8.1,15.7
		c-0.2,1.5-0.5,2.5-2,3c-1.9,0.6-2.3-1-2.8-2.1C72,101.4,71,99,70,96.5c-2.8-7.1-4.8-14.6-9.3-20.9c-2.6-3.6-5.8-7.2-10.3-6.9
		c-2.8,0.2-4.1-1.5-6.1-2.1c-0.3,1.6,0,3.6-0.8,4.4c-6.2,6.6-4.3,13.8-1,20.4c4.6,9.1,9.9,18,15.3,26.7c1.8,2.9,2.9,2,5,2.4
		c2.4,0.5,6-0.8,7.2,2.3c3,7.9,9.2,14.9,7.2,24.3c-0.4,2,1.3,5.1-1.3,5.8c-2.8,0.7-3.1-2.9-4.6-4.5c-0.5-0.6-0.7-1.5-1.1-2.2
		c-3.3-6.2-5.9-12.7-10.1-18.3c-3.2-4.3-6.7-8.7-12.6-8.7c-2.6,0-5-0.4-7.8-1.7c0.6,2.8,1,4.7-0.8,6.6c-1.4,1.4-1.5,3.5-1.6,5.6
		c-0.2,6,2.2,11.2,5.8,15.6c5.8,7.2,10.9,15,16.8,22.2c2.2,2.7,3.3,1.8,5.2,1.6c4.3-0.4,7,0.7,9.6,4.9c4.4,6.8,6.2,14,7.9,21.6
		c5.2,24.5,17.9,36.8,42.4,40.5c18.4,2.8,36.7,1,54.9-3.6c22.4-5.8,43.4-15.4,64.9-23.7c26.7-10.3,54.2-16.8,83-16.6
		c24,0.1,47.1,5.1,69.8,12.4c22.8,7.3,44.7,17,67.6,23.8c5.7,1.7,11.5,3.2,17.3,4.7c1.1,0.3,3,0.8,3.5-0.7c0.6-1.8-1.3-1.9-2.5-2.3
		c-0.6-0.2-1.2-0.5-1.9-0.7c-13.9-3.4-27.2-8.5-40.5-13.7c-22.3-8.7-44.6-17.3-68.1-22.2c-3.4-0.7-7.3-0.2-10.1-3.1
		c5,0,10-0.1,15,0.1c2.9,0.1,4.3-0.4,4.7-3.9c1.1-8.6,3-17,4.5-25.5c5-28.5,10.1-56.9,15.1-85.4c0.5-2.8,0.4-4.2-3.2-4.1
		c-7.8,0.3-15.6,0.2-23.5,0c-2.8-0.1-3.9,0.6-4.4,3.7c-2.6,15.9-5.6,31.7-8.3,47.6c-3.9,22.1-7.7,44.2-11.5,66.3
		C342.8,188.5,334.8,187.9,326.8,187.3z M465.9,113.1c-8.9-9.4-19.7-9.5-30.5-7.5c-23.3,4.4-39.5,24.2-40.3,48.6
		c-0.9,27.3,15.4,41.6,42.4,36.8c6.8-1.2,12.7-4.5,18.5-9.2c0,1.7,0.2,2.6,0,3.5c-0.8,4.3,1,5.3,5.1,5.1c6.1-0.4,12.3-0.3,18.5,0
		c3.4,0.2,4.5-1.1,5-4.3c3-17.7,6.1-35.4,9.3-53.1c3.3-18.7,6.6-37.3,10-56c0.7-4,0.1-5.6-4.5-5.4c-7.1,0.4-14.3,0.4-21.5,0
		c-4-0.2-5,1.5-5.6,4.9C470.2,88.5,468.1,100.5,465.9,113.1z M215.7,122.3c-1.3-0.1-2.5-0.3-3.6-0.3c-14.8,0-29.7-0.1-44.5,0.1
		c-3.6,0.1-4.2-1.1-3.4-4.3c1.1-4.5,2.2-9.1,2.5-13.7c0.3-3.6,1.6-4.3,4.9-4.2c15.7,0.2,31.3,0,47,0.2c3.5,0,5-0.7,5.4-4.4
		c0.8-6.6,1.9-13.2,3.4-19.7c0.8-3.4,0-4.2-3.4-4.2c-27,0.1-54,0.1-81,0c-3.5,0-4.5,1.2-5,4.4c-1.7,11-3.7,22-5.6,33
		c-4.5,25.7-9.1,51.5-13.6,77.2c-0.4,2.1-1.4,4.2,2.5,4.1c9.2-0.2,18.3-0.1,27.5,0c2.4,0,2.9-1,3.3-3.2c1.8-11,4-21.9,5.6-32.9
		c0.6-3.9,2-4.8,5.7-4.7c14.5,0.2,29,0,43.5,0.1c2.7,0,4.2-0.5,4.6-3.6C212.8,138.2,214.3,130.3,215.7,122.3z M230.1,190.3
		c4.2,0,8.3-0.1,12.5,0.1c2.5,0.1,3.6-0.7,4-3.1c4.4-25.2,8.8-50.5,13.3-75.7c0.5-2.6,0.3-3.8-3-3.8c-8.2,0.2-16.3,0.2-24.5,0
		c-2.9-0.1-3.7,1.1-4.1,3.6c-0.9,5.7-1.9,11.5-3,17.2c-3.4,19.2-6.8,38.3-10.3,57.5c-0.5,3-0.3,4.7,3.5,4.3
		C222.4,190.1,226.3,190.3,230.1,190.3z M245.9,100.9c6.1-0.3,11.5-1.8,15.7-6c4.7-4.7,6.5-10.4,4.3-16.9c-1.8-5.2-7.5-8.8-13.9-8.8
		c-6.2,0-11.8,2-16.2,6.5c-4.6,4.6-6.2,11.7-3.8,17C234.7,98.8,240,100.5,245.9,100.9z"/>
	<path id="XMLID_95_" class="st1" d="M362.5,190.3c2.8,2.9,6.7,2.3,10.1,3.1c23.5,4.9,45.8,13.5,68.1,22.2
		c13.3,5.2,26.6,10.3,40.5,13.7c0.6,0.2,1.3,0.5,1.9,0.7c1.2,0.4,3.1,0.5,2.5,2.3c-0.5,1.5-2.4,1-3.5,0.7
		c-5.8-1.4-11.6-2.9-17.3-4.7c-22.9-6.9-44.9-16.5-67.6-23.8c-22.7-7.3-45.8-12.3-69.8-12.4c-28.8-0.2-56.3,6.3-83,16.6
		c-21.5,8.3-42.5,17.9-64.9,23.7c-18.1,4.7-36.4,6.5-54.9,3.6c-24.6-3.8-37.2-16.1-42.4-40.5c-1.6-7.7-3.5-14.8-7.9-21.6
		c-2.7-4.1-5.3-5.3-9.6-4.9c-1.8,0.2-3,1-5.2-1.6c-5.9-7.2-11-15-16.8-22.2c-3.5-4.4-6-9.6-5.8-15.6c0.1-2.1,0.2-4.2,1.6-5.6
		c1.9-1.8,1.5-3.8,0.8-6.6c2.8,1.3,5.2,1.7,7.8,1.7c5.9,0.1,9.4,4.4,12.6,8.7c4.2,5.6,6.9,12.1,10.1,18.3c0.4,0.7,0.6,1.6,1.1,2.2
		c1.5,1.6,1.8,5.2,4.6,4.5c2.6-0.7,0.9-3.8,1.3-5.8c2-9.4-4.2-16.4-7.2-24.3c-1.2-3.1-4.7-1.8-7.2-2.3c-2-0.4-3.1,0.6-5-2.4
		c-5.4-8.7-10.6-17.6-15.3-26.7c-3.3-6.6-5.2-13.8,1-20.4c0.8-0.9,0.6-2.8,0.8-4.4c2,0.7,3.4,2.3,6.1,2.1c4.6-0.3,7.8,3.3,10.3,6.9
		c4.5,6.3,6.5,13.8,9.3,20.9c1,2.5,2,4.9,3.2,7.3c0.5,1.1,0.9,2.7,2.8,2.1c1.5-0.5,1.9-1.6,2-3c1.2-9.2,0.1-10.9-8.1-15.7
		c-1.1-0.6-1.6-4.3-1.7-6.5c-0.4-11-3.6-21.7-2.3-32.8c0.7-5.5,2.8-10.1,7.9-12.4c2.2-1,1.7-3,3.3-4.5c1.3,2.1,2.7,3.6,5,4.8
		c4.7,2.6,6.3,7.4,6.9,12.6c1,8.7-0.6,17.3-0.1,25.9c0.1,1.9-1.5,4.7,2,5.8c1.4,0.4,0.2,1.2-0.3,1.7C82,89.5,84.2,100,83,109.6
		c-0.2,1.6,0.5,2.2,2,2.7c2,0.7,2.4-0.7,2.8-1.8c2.8-7.3,5.2-14.7,8.2-21.9c2.4-5.9,5.3-11.5,11.9-14c2.6-1,6.2,1.4,8-3
		c0.1,3.4,0.5,5.5,2.9,7.7c3,2.7,2.6,7.1,1.8,10.9c-0.8,3.7-1.8,7.5-3.9,10.7c-4.9,7.3-7.6,15.9-13.1,22.8c-0.6,0.7-0.9,1.4-0.2,2.1
		c0.5,0.5,1.2,0.9,1.7,0.3c3.5-4.3,9.5-1.9,13.6-6.1c0,3.4,0.7,5.4,2.5,7.7c3.2,3.9,2.2,8.9,1.1,13.4c-1.1,4.5-3.2,8.7-5.7,12.7
		c-2.3,3.6-4.5,7.3-6.1,11.4c-2.2,5.7-6.1,9.9-12.6,10.5c-2.8,0.2-4.2,1.5-4.9,4c-0.2,0.6-0.4,1.3-0.8,1.8
		c-9.4,13.7-1.9,25,6.1,35.3c8.4,10.9,20.8,14.9,34.2,16.2c31.5,3,61-4.8,89.6-17.1c22-9.4,44.1-18.3,67.1-24.8
		c12.4-1.8,24.9-3.6,37.4-3.8c8,0.6,16.1,1.2,24.1,1.8C354.6,190.8,358.7,189.4,362.5,190.3z M104,127.3c-10.8-1.4-10.8-1.4-15,7.5
		c-0.5,1-0.9,2.2-1.6,3.1c-4.4,4.9-5.8,10.1-4.5,16.8c1.6,8.3,1.7,16.9,2.5,26.1c6.6-7,3.1-13.6,1-20.1c3.4-0.2,4-0.8,5.8-5.7
		C95.4,145.8,97.6,136,104,127.3z M83.2,132.2c6.3-6.4,2.8-12.5,0-18.6C83.2,119.7,83.2,125.8,83.2,132.2z M76.9,123.3
		c0.2-5.5,0.5-10.6,0.7-15.6c-0.5,0-1,0-1.5,0C77,112.7,71.6,117.5,76.9,123.3z M83.3,64.7c0.1-0.1,0.2-0.1,0.2-0.2
		c0-5.9,0-11.8,0-17.7c-0.1,0-0.2,0-0.2,0C83.3,52.7,83.3,58.7,83.3,64.7z M77.3,165.4c0-4.4,0-7.5,0-10.5c-0.5,0-1,0-1.6,0
		C78.4,157.9,75.2,161,77.3,165.4z M72.4,60.6c0.1,0,0.2,0,0.3,0c0-4.4,0-8.8,0-13.1c-0.1,0-0.2,0-0.3,0
		C72.4,51.8,72.4,56.2,72.4,60.6z"/>
	<path id="XMLID_92_" class="st2" d="M465.9,113.1c2.2-12.6,4.3-24.5,6.3-36.5c0.6-3.4,1.6-5.1,5.6-4.9c7.1,0.4,14.3,0.4,21.5,0
		c4.6-0.3,5.2,1.4,4.5,5.4c-3.4,18.6-6.7,37.3-10,56c-3.1,17.7-6.3,35.4-9.3,53.1c-0.5,3.2-1.6,4.5-5,4.3c-6.1-0.3-12.3-0.4-18.5,0
		c-4.1,0.2-5.9-0.8-5.1-5.1c0.2-0.9,0-1.9,0-3.5c-5.8,4.7-11.7,8-18.5,9.2c-27,4.8-43.4-9.5-42.4-36.8c0.8-24.4,17-44.2,40.3-48.6
		C446.2,103.5,457,103.7,465.9,113.1z M426.8,151.3c-0.1,9.4,5.2,15.4,13.8,15.4c10.7,0,19.8-9.4,20.1-20.7
		c0.3-9.3-5.1-15.7-13.4-15.8C436,129.9,427,139.2,426.8,151.3z"/>
	<path id="XMLID_91_" class="st2" d="M215.7,122.3c-1.4,8.1-3,15.9-4.1,23.8c-0.5,3.1-1.9,3.6-4.6,3.6c-14.5-0.1-29,0.1-43.5-0.1
		c-3.7-0.1-5.2,0.8-5.7,4.7c-1.6,11-3.8,21.9-5.6,32.9c-0.4,2.2-0.9,3.2-3.3,3.2c-9.2-0.1-18.3-0.2-27.5,0c-3.9,0.1-2.8-2.1-2.5-4.1
		c4.5-25.7,9.1-51.4,13.6-77.2c1.9-11,3.9-21.9,5.6-33c0.5-3.1,1.5-4.4,5-4.4c27,0.2,54,0.1,81,0c3.4,0,4.2,0.8,3.4,4.2
		c-1.5,6.5-2.6,13.1-3.4,19.7c-0.4,3.7-2,4.5-5.4,4.4c-15.7-0.2-31.3,0-47-0.2c-3.3,0-4.6,0.6-4.9,4.2c-0.3,4.6-1.5,9.2-2.5,13.7
		c-0.7,3.2-0.2,4.3,3.4,4.3c14.8-0.2,29.7-0.1,44.5-0.1C213.3,122,214.4,122.2,215.7,122.3z"/>
	<path id="XMLID_88_" class="st2" d="M326.8,187.3c-12.6,0.2-25,2.1-37.4,3.8c-24.5-5.4-35.2-24.6-27.7-49.7
		c6-19.9,23.3-33.9,45-36.3c6.8-0.8,13.6-0.8,20.4,0.8c19.4,4.6,28.5,17.7,25.8,37.4c-1.8,13.7-2.1,14-15.7,14
		c-14.2,0-28.3,0-42.5,0c-1.2,0-2.9-0.8-3.5,0.8c-0.6,1.4,0.6,2.6,1.4,3.5c3.9,4.8,9.4,6.1,15.2,6.2c6.8,0.1,13.3-1.6,19.1-5
		c2.7-1.7,3.9-1.1,5.5,1.3c2.6,4,5.5,8,8.4,11.8c1.5,1.9,1.3,2.9-0.8,4.3C335.7,182.9,331.4,185.5,326.8,187.3z M294.6,137.1
		c9.3,0,18.1-0.1,26.8,0.1c3.2,0.1,3.2-1.6,2.4-3.7c-0.5-1.4-1.4-2.5-2.7-3.5C313.2,124.3,299.5,127.6,294.6,137.1z"/>
	<path id="XMLID_87_" class="st2" d="M362.5,190.3c-3.8-0.8-7.9,0.5-11.6-1.2c3.8-22.1,7.7-44.2,11.5-66.3
		c2.8-15.9,5.7-31.7,8.3-47.6c0.5-3.1,1.6-3.8,4.4-3.7c7.8,0.2,15.7,0.2,23.5,0c3.6-0.1,3.7,1.3,3.2,4.1
		c-5.1,28.5-10.1,56.9-15.1,85.4c-1.5,8.5-3.3,17-4.5,25.5c-0.5,3.5-1.8,4-4.7,3.9C372.5,190.2,367.5,190.3,362.5,190.3z"/>
	<path id="XMLID_86_" class="st2" d="M230.1,190.3c-3.8,0-7.7-0.3-11.5,0.1c-3.8,0.3-4-1.4-3.5-4.3c3.5-19.1,6.9-38.3,10.3-57.5
		c1-5.7,2.1-11.5,3-17.2c0.4-2.4,1.2-3.7,4.1-3.6c8.2,0.2,16.3,0.2,24.5,0c3.2-0.1,3.4,1.1,3,3.8c-4.5,25.2-8.9,50.4-13.3,75.7
		c-0.4,2.4-1.6,3.2-4,3.1C238.4,190.2,234.3,190.3,230.1,190.3z"/>
	<path id="XMLID_85_" class="st2" d="M245.9,100.9c-5.9-0.4-11.2-2.1-14-8.3c-2.3-5.3-0.8-12.3,3.8-17c4.5-4.5,10-6.4,16.2-6.5
		c6.4,0,12.1,3.6,13.9,8.8c2.2,6.5,0.4,12.2-4.3,16.9C257.3,99.1,252,100.7,245.9,100.9z"/>
	<path id="XMLID_84_" class="st0" d="M104,127.3c-6.4,8.7-8.6,18.5-11.9,27.8c-1.8,4.9-2.4,5.5-5.8,5.7c2.1,6.5,5.6,13.1-1,20.1
		c-0.8-9.2-0.9-17.8-2.5-26.1c-1.3-6.7,0.2-12,4.5-16.8c0.7-0.8,1.1-2,1.6-3.1C93.3,125.9,93.3,125.9,104,127.3z"/>
	<path id="XMLID_83_" class="st0" d="M83.2,132.2c0-6.3,0-12.4,0-18.6C86,119.7,89.6,125.8,83.2,132.2z"/>
	<path id="XMLID_82_" class="st0" d="M76.9,123.3c-5.3-5.8,0.1-10.6-0.8-15.6c0.5,0,1,0,1.5,0C77.4,112.7,77.1,117.8,76.9,123.3z"/>
	<path id="XMLID_81_" class="st0" d="M83.3,64.7c0-6,0-11.9,0-17.9c0.1,0,0.2,0,0.2,0c0,5.9,0,11.8,0,17.7
		C83.5,64.5,83.4,64.6,83.3,64.7z"/>
	<path id="XMLID_80_" class="st0" d="M77.3,165.4c-2.2-4.4,1.1-7.4-1.6-10.5c0.5,0,1,0,1.6,0C77.3,157.9,77.3,161,77.3,165.4z"/>
	<path id="XMLID_79_" class="st0" d="M72.4,60.6c0-4.4,0-8.8,0-13.1c0.1,0,0.2,0,0.3,0c0,4.4,0,8.8,0,13.1
		C72.6,60.6,72.5,60.6,72.4,60.6z"/>
	<path id="XMLID_78_" class="st0" d="M426.8,151.3c0.2-12.1,9.2-21.4,20.4-21.2c8.3,0.2,13.7,6.5,13.4,15.8
		c-0.3,11.3-9.4,20.7-20.1,20.7C432,166.7,426.7,160.7,426.8,151.3z"/>
	<path id="XMLID_77_" class="st0" d="M294.6,137.1c4.9-9.5,18.6-12.8,26.5-7.1c1.3,0.9,2.2,2.1,2.7,3.5c0.8,2.1,0.9,3.8-2.4,3.7
		C312.7,137,304,137.1,294.6,137.1z"/>
</g>
</svg>
