<?xml version="1.0" encoding="utf-8"?>
<!-- Generator: Adobe Illustrator 19.0.0, SVG Export Plug-In . SVG Version: 6.00 Build 0)  -->
<svg version="1.1" id="Camada_1" xmlns="http://www.w3.org/2000/svg" xmlns:xlink="http://www.w3.org/1999/xlink" x="0px" y="0px"
	 viewBox="0 70 960 740" style="enable-background:new 0 0 960 960;" xml:space="preserve">
<style type="text/css">
	.st0{fill:#080A08;}
	.st1{fill:#DDDDDD;}
</style>
<g id="XMLID_18_">
	<path id="XMLID_132_" class="st0" d="M623.4,322.9c0-44.4,33.5-78.1,77.5-78.1c43.4,0,77.5,34.1,77.4,77.4
		c-0.1,43.9-33.6,77.6-77.1,77.5C657.3,399.7,623.4,366.2,623.4,322.9z M666.9,315.7c11.3-0.2,20.6-9.7,20.3-20.7
		c-0.3-11.2-9.7-19.9-21.3-19.6c-11.2,0.3-19.6,8.9-19.5,20.1C646.4,307.1,655.4,315.9,666.9,315.7z"/>
	<path id="XMLID_129_" class="st0" d="M298.4,405.8c-42.7,0-77.3-34.7-77.5-77.8c-0.2-41.1,36.1-77.2,77.8-77.1
		c43.7,0.1,77.6,33.7,77.8,77.3C376.6,372.4,343.1,405.7,298.4,405.8z M259.9,317.7c11.4,0,20.9-9.2,20.9-20.2
		c0-11-9.6-20.4-20.9-20.2c-10.8,0.1-20.2,9.2-20.4,19.8C239.2,308.1,248.8,317.7,259.9,317.7z"/>
	<path id="XMLID_124_" class="st1" d="M392.9,672.8c-24.6-5.8-32.3-14.4-31.6-34.3c0.1-1.5-0.4-3.4-1.3-4.3
		c-4.8-4.8-23.2,0-25.6,6.5c-2.1,5.6-2.4,11.7-5.2,17.2c-4.4,8.6-10.9,13.1-20.3,13.3c-10.1,0.2-18.9-2.7-24.2-12.2
		c-2.8-5-5.5-9.9-5.8-16c-0.2-3.1-1.8-6.5-6-5.9c-4.1,0.6-3.1,4.2-3.2,6.9c-0.2,6.7,0.3,13.4-0.3,20.1c-0.4,4.4-1.9,9.4-7.9,8.8
		c-5.4-0.5-7.1-4.6-7.1-9.6c0-5.4,0-10.8,0-16.3c0-4.2,0.6-8.6-5.9-8.4c-5.9,0.1-12.1-0.2-13.1,7.7c-0.6,4.4,0,8.9-0.2,13.4
		c-0.6,11.1-8.7,20.4-18.4,21.2c-15.3,1.3-24.3-10.1-18.8-24.6c2.9-7.7,7.1-14.9,14.5-19.6c6.5-4.1,9.1-9.1,7.8-17.5
		c-1.5-9.3-0.4-19.1-0.4-28.6c0-4,1.2-6.8,5.7-7.2c5-0.4,7,2.6,7.5,6.8c0.9,8.2,1.5,16.4,2,24.6c0.3,5.1-0.7,11.2,7.2,10.4
		c6.9-0.6,12.5-3.5,11.9-11.9c-0.3-4.4-1.3-8.8-1.7-13.2c-0.2-2.2-0.3-4.5,0.2-6.7c1.1-4.7,2.2-10.2,8.4-9.7
		c5.5,0.5,6.3,5.7,6.5,10.2c0.3,6.7,0,13.4,0.1,20.1c0.1,3.4-0.8,7.5,3.7,8.8c3.8,1.1,5.4-2.2,7.6-4.6c5.5-6,9.5-5,12.4,2.5
		c1.6,4.1,1,8.2,1.2,12.3c0.2,4.1-0.1,8.1,1.2,12.3c2.1,6.8,6.5,11.1,13.2,12.2c5.2,0.9,8.4-3.2,10-7.3c2.4-6.2,4.9-12.7-1.5-18.4
		c-2.8-2.5-5.8-4.9-5.8-9.4c0-4.1,0.8-7.8,4.8-9.6c3.4-1.6,7-1.6,9.7,1.3c4.9,5.2,10.9,5.9,17.5,5.6c21-1.1,41.8,1.5,62.6,3.7
		c5.5,0.6,6.9,3.5,6.8,8.3c-0.1,8.2,0,16.4,0,26.4c11.3-6.2,21.4-11.4,31.1-17.3c4.3-2.6,5.4-7.6,5.3-12.7
		c-0.1-10.5-0.1-21-0.1-31.5c0-5,0.1-10.7,6.6-10.4c5.8,0.2,7.4,5.1,6.8,10.6c-0.2,2.5,0,5,0,8c6.1-1.1,11-8,15.9-5.7
		c10.7,5,21.6,3.7,32.5,5.2c14.2,1.9,14.6,16.4,16.2,27.2c1.9,13.3-1.9,27.5,7.5,39.5c1.7,2.2-0.7,4.8-2.8,6.4
		c-2.9,2.2-6,2.2-8.7-0.2c-6.5-5.6-9-13-8.9-21.3c0.2-10.8-0.7-21.5-3.5-32c-0.8-2.8-1.5-5.8-5.2-5.9c-3.1-0.1-4.2,2.4-5.4,4.7
		c-4,7.5-4.9,15.6-5.2,23.9c-0.1,4.1,0.5,8.2-1.4,12.2c-1.6,3.2-3.7,5.2-7.4,4.5c-3.7-0.7-6.8-2.4-6.4-6.9
		c0.9-9.8,1.9-19.5,2.9-29.3c0.2-1.6,0.8-3.1,0.8-4.7c0-3.3-0.5-6.8-3.9-8c-3.8-1.3-5.6,2.1-7.3,4.7c-4.6,7.5-5.8,16.1-7.5,24.4
		c-1.5,7.1-1.8,14.5-2.2,21.7c-0.3,5.1-1.9,9.1-7.3,9.4c-6.7,0.3-6-5-6.2-9.5c-0.3-10.8-0.4-10.8-9.5-5.6c-1.9,1.1-3.8,2.3-5.8,3.2
		c-15.6,7.6-24.6,18.6-25.3,37.2c-0.4,12.5-5.6,24.7-13.4,35.2c-6.6,8.8-15.6,11.6-26.1,10.4c-8.2-0.9-12.2-6.6-14.4-13.6
		c-3.4-10.5,2.5-18.2,8.6-25.8C370.8,694.9,381.8,684.7,392.9,672.8z M393.6,690.8c-8.2,13-19.3,19.8-25.7,30.9
		c-1.4,2.4-3.4,4.8-0.7,7.8c2.7,3,5.8,3.6,9.4,2c2.7-1.2,4.7-2.9,6.2-5.6C388.5,715.9,392.7,705.5,393.6,690.8z M386.3,634.9
		c-6.8,0-11.3,4-11.1,8.9c0.2,6.5,6.2,12.3,12.4,12.1c7.2-0.3,9.2-5.9,9.4-11C397.1,638.1,391.6,635.5,386.3,634.9z M221.2,649.3
		c-5.8,2.7-7.5,7.5-9.7,12c-1,2-0.8,3.7,1.1,4.9c2,1.3,3.6,0.2,4.9-1.3C221.4,660.7,222.6,655.8,221.2,649.3z"/>
	<path id="XMLID_123_" class="st1" d="M654.5,208.2c-28.2,0.4-56.7,5.2-85.4,7.4c-18.1,1.4-36.3,0.1-54.5,0.6
		c-41,1.1-81.9,1.9-122.9,4c-24.4,1.2-48.9,1.8-73.1,4c-26.1,2.3-52.6,0.6-78.2,8.3c-34.2,10.3-52.3,35.4-62.5,67.7
		c-7.7,24.4-9.1,49.6-10,75.1c-1.4,37-8.2,73.5-15.6,109.8c-3.8,18.6-7.2,37.3-10.8,55.9c-0.7,3.8-1.4,8.6-6.6,7.4
		c-4.9-1.1-2.8-5.5-2.2-8.7c9.2-48.1,18.6-96.3,25.5-144.8c1.4-10-0.1-20.4,0.5-30.5c2.1-34,5.3-67.7,22.6-98.3
		c16.9-29.8,42.9-45.2,76.5-48c35.4-2.9,70.9-4.8,106.4-6.1c28.5-1.1,57.1-2.5,85.6-3.8c29.6-1.3,59.2-0.5,88.7-1.9
		c40.5-2,80.8-8.3,121.3-8.2c47.1,0.1,94.4,4.9,131.4,39.9c17.1,16.1,25.2,37.5,27.1,60.5c4.5,54.6,9.4,109,20.7,162.7
		c5.6,26.6,9.5,53.6,14.3,80.3c0.5,3,1.7,6-2.2,6.9c-4.5,1-3.9-3.1-4.4-5.7c-5.7-29.2-11.5-58.3-16.7-87.6
		c-4.7-26.5-8.9-53-12.8-79.6c-2.1-13.8-2.3-27.8-2.8-41.8c-0.7-17.7-1.8-35.4-8.1-52.4c-11.7-31.6-34.1-51.6-65.8-61.3
		C712.8,211.5,684.1,208.8,654.5,208.2z"/>
	<path id="XMLID_122_" class="st0" d="M610.4,394.2c0.1,19.8-22.9,37.7-43.7,35.3c-6.7-0.8-12.8-3.2-19-5.9
		c-23.4-10-47.1-18-72.8-8.7c-10.3,3.7-19.6,9.2-27.8,16.3c-8.7,7.6-17.8,9.9-29.1,6.9c-12.7-3.4-25-7.2-34.7-16.8
		c-6.7-6.6-8.4-14-4.8-22.6c4-9.7,10.5-16.7,21.4-18.1c5.7-0.8,9.6,2.8,12.9,6.9c1.2,1.5,2.4,3,3.1,4.8c9.2,20.8,13.9,20.4,30.8,5.4
		c22.9-20.4,49.7-23.9,78.6-16.2c11.1,3,21.8,6.9,31.9,12.5c8,4.5,14.6,2.8,20.4-3.8c1.7-1.9,3.4-3.8,5.1-5.7
		c4.6-5.3,9.5-9.6,17.3-6.3C607.5,381.4,611.5,386.8,610.4,394.2z"/>
	<path id="XMLID_119_" class="st1" d="M599.9,660.8c-10.4,5.3-19.8,11-31.6,10.6c-22.9-0.6-38.5-22.4-30.8-43.8
		c2.8-7.8,7.8-11.8,16.3-12c9.1-0.2,15.5,3.5,18.8,11.7c2.9,7.4,1.1,14.2-4.6,20.1c-2.4,2.4-8.9,3-6.3,7.8c2.4,4.6,7.9,2.6,12.2,1.5
		c11.6-3,21.5-8.1,24.7-20.9c0.7-2.8,2.3-4.7,5.2-4.7c10.5,0,10.9-7.8,12-15.1c1.3-8.4,2.5-16.9,3.5-25.3c0.5-4.1,1.6-7.9,5.9-8.8
		c5-1.1,7.4,3.2,9.4,6.7c5.7,9.6,8.8,20.4,12.5,30.8c2.2,6.4,4.5,12,12.7,11.7c2.8-0.1,4.9,1.4,5.4,4.3c0.5,2.8-0.1,5.5-2.8,6.5
		c-8.9,3.4-7.2,9.9-5.3,16.6c0.9,3.2,1,6.2-0.5,9.3c-1.3,2.7-3.4,3.5-6.2,3.4c-2.8-0.1-5-1.2-5.8-4c-1.2-4.6-2.3-9.2-3.4-13.8
		c-1-4.3-1-8.9-7.5-9c-6-0.1-10.6,1.2-13,7.2c-1.7,4.4-3.6,8.8-5.6,13.1c-2.1,4.3-4.1,9.3-10.2,8.2
		C598.6,671.7,601.2,665.8,599.9,660.8z M558.3,633.7c-0.3-1.8-1.2-4.1-4-3.7c-3.2,0.4-3.6,3.1-3.5,5.7c0,2.1-0.2,4.9,3.4,3.9
		C556.8,638.9,558.6,637.3,558.3,633.7z"/>
	<path id="XMLID_116_" class="st1" d="M682.7,653.5c0,3.5,0,7,0,10.5c0,3.9-1.2,7.1-5.8,7.1c-4.1,0-7.3-2.5-7.3-6.2
		c0.1-13.3-3.5-26.5-2.1-39.9c0.5-4.6,2.4-7.7,8-7.3c29.1,2,35.4,7.3,42.5,36.2c3.2,13,6.4,14.1,17,6.5c9.7-6.9,14.3-16.8,16.3-28
		c1.7-9.3,6.4-15.1,15.6-16.7c9.3-1.6,16.1,2.4,20.2,10.7c4.5,8.9,0.6,15.6-5.9,21.9c-2,2-7.2,3.1-5.4,6.6c1.8,3.5,6.7,3.4,10.5,2.7
		c9.6-1.8,17.8-6.4,24.3-14c3.1-3.7,7.2-8,11.9-3c3.9,4.2,1.3,8.5-2.1,12.6c-10.8,12.6-23.8,19.7-40.9,18.1
		c-6.6-0.6-12.6-1.9-16.9-7.2c-4.4-5.4-7.4-4.8-11.7,0.8c-6.5,8.4-14.6,15-26.6,14.1c-9.7-0.7-16-5.1-18.6-14.7
		c-1.5-5.5-2.7-11.1-4-16.6c-0.8-3.5-2.4-6.5-4.8-9.1c-2.8-3.1-6.2-4.5-10.3-3.3c-4.5,1.3-3.9,5.2-4,8.7
		C682.7,647.1,682.7,650.3,682.7,653.5z M770.8,629.8c-3,0.5-4.9,2.4-5.5,5.4c-0.5,2.3,1,3.4,3.2,3.5c2.8,0,4.9-1,5.5-3.9
		C774.6,632.2,773.4,630.6,770.8,629.8z"/>
</g>
</svg>
